# AST/ASF file generated using VICON BodyLanguage
# -----------------------------------------------
:version 1.10
:name VICON
:units
  mass 1.0
  length 0.45
  angle deg
:documentation
   .ast/.asf automatically generated from VICON data using
   VICON BodyBuilder and BodyLanguage model FoxedUp or BRILLIANT.MOD
:root
   order TX TY TZ RX RY RZ
   axis XYZ
   position 0 0 0  
   orientation 0 0 0 
:bonedata
  begin
     id 1 
     name lhipjoint
     direction 0.577973 -0.728611 0.367523 
     length 2.48544 
     axis 0 0 0  XYZ
  end
  begin
     id 2 
     name lfemur
     direction 0.34202 -0.939693 0  
     length 7.1921  
     axis 0 0 20  XYZ
    dof rx ry rz
    limits (-160.0 20.0)
           (-70.0 70.0)
           (-60.0 70.0)
  end
  begin
     id 3 
     name ltibia
     direction 0.34202 -0.939693 0   
     length 7.71059   
     axis 0 0 20   XYZ
    dof rx
    limits (-10.0 170.0)
  end
  begin
     id 4 
     name lfoot
     direction 0.089538 -0.246004 0.965124   
     length 2.19909   
     axis -90 7.62852e-016 20   XYZ
    dof rx rz
    limits (-45.0 90.0)
           (-70.0 20.0)
  end
  begin
     id 5 
     name ltoes
     direction 1.53544e-011 -4.21829e-011 1   
     length 1.10116   
     axis -90 7.62852e-016 20   XYZ
    dof rx
    limits (-90.0 20.0)
  end
  begin
     id 6 
     name rhipjoint
     direction -0.554414 -0.743062 0.374812   
     length 2.4371  
     axis 0 0 0  XYZ 
  end
  begin
     id 7 
     name rfemur
     direction -0.34202 -0.939693 0   
     length 7.47254   
     axis 0 0 -20   XYZ
    dof rx ry rz
    limits (-160.0 20.0)
           (-70.0 70.0)
           (-70.0 60.0)
  end
  begin
     id 8 
     name rtibia
     direction -0.34202 -0.939693 0   
     length 7.65855   
     axis 0 0 -20   XYZ
    dof rx
    limits (-10.0 170.0)
 end
 begin
     id 9 
     name rfoot
     direction -0.133779 -0.367555 0.92033   
     length 2.43006  
     axis -90 -7.62852e-016 -20   XYZ
    dof rx rz
    limits (-45.0 90.0)
           (-20.0 70.0)
  end
  begin
     id 10 
     name rtoes
     direction -1.53563e-011 -4.21889e-011 1   
     length 1.19625   
     axis -90 -7.62852e-016 -20   XYZ
    dof rx
    limits (-90.0 20.0)
  end
  begin
     id 11 
     name lowerback
     direction 0.0249066 0.998043 -0.0573585   
     length 2.08485   
     axis 0 0 0   XYZ
    dof rx ry rz
    limits (-20.0 45.0)
           (-30.0 30.0)
           (-30.0 30.0)
  end
  begin
     id 12 
     name upperback
     direction 0.0237884 0.999673 0.00943178   
     length 2.08515   
     axis 0 0 0   XYZ
    dof rx ry rz
    limits (-20.0 45.0)
           (-30.0 30.0)
           (-30.0 30.0)
  end
  begin
     id 13 
     name thorax
     direction 0.0106671 0.999301 0.0358174   
     length 2.09037   
     axis 0 0 0   XYZ
    dof rx ry rz
    limits (-20.0 45.0)
           (-30.0 30.0)
           (-30.0 30.0)
  end
  begin
     id 14 
     name lowerneck
     direction -0.0580016 0.987052 0.149546   
     length 1.84454   
     axis 0 0 0   XYZ
    dof rx ry rz
    limits (-20.0 45.0)
           (-30.0 30.0)
           (-30.0 30.0)
  end
  begin
     id 15 
     name upperneck
     direction 0.079456 0.981963 -0.171567   
     length 1.88141   
     axis 0 0 0   XYZ
    dof rx ry rz
    limits (-20.0 45.0)
           (-30.0 30.0)
           (-30.0 30.0)
  end
  begin
     id 16
     name head
     direction 0.0262167 0.9967 -0.0768276  
     length 1.89541  
     axis 0 0 0   XYZ
    dof rx ry rz
    limits (-20.0 45.0)
           (-30.0 30.0)
           (-30.0 30.0)
  end
  begin
     id 17 
     name lclavicle
     direction 0.946135 0.322134 -0.0325326  
     length 3.949  
     axis 0 0 0   XYZ
    dof ry rz
    limits (-20.0 10.0)
           (0.0 20.0)
  end
  begin
     id 18 
     name lhumerus
     direction 1 -4.48964e-011 1.94005e-028   
     length 5.10995   
     axis 180 -30 -90   XYZ
    dof rx ry rz
    limits (-60.0 90.0)
           (-90.0 90.0)
           (-90.0 90.0)
  end
  begin
     id 19
     name lradius
     direction 1 -4.48976e-011 2.87852e-027   
     length 3.21207   
     axis 180 -30 -90   XYZ
    dof rx
    limits (-10.0 170.0)
  end
  begin
     id 20
     name lwrist
     direction 1 -4.48963e-011 1.9975e-027   
     length 1.60604   
     axis 2.96054e-016 90 90   XYZ
    dof ry
    limits (-180.0 0.0)
 end
  begin
     id 21 
     name lhand
     direction 1 -4.48919e-011 4.00227e-027   
     length 0.63349   
     axis -2.5488e-015 90 90   XYZ
    dof rx rz
    limits (-90.0 90.0)
           (-45.0 45.0)
  end
  begin
     id 22 
     name lfingers
     direction 1 -4.49037e-011 7.9652e-027   
     length 0.510736   
     axis -5.0975e-015 90 90   XYZ
    dof rx
    limits (0.0 90.0)
  end
  begin
     id 23
     name lthumb
     direction 0.707107 -6.34922e-011 0.707107   
     length 0.733318   
     axis -90 45 -4.48553e-014   XYZ
    dof rx rz
    limits (-45.0 45.0)
           (-45.0 45.0)
  end
  begin
     id 24 
     name rclavicle
     direction -0.940085 0.328911 -0.0897654   
     length 3.93848  
     axis 0 0 0   XYZ 
    dof ry rz
    limits (-10.0 20.0)
           (-20.0 0.0)
  end
  begin
     id 25 
     name rhumerus
     direction -1 -4.48958e-011 3.02044e-027  
     length 5.25109   
     axis 180 30 90   XYZ
    dof rx ry rz
    limits (-90.0 60.0)
           (-90.0 90.0)
           (-90.0 90.0)
  end
  begin
     id 26 
     name rradius
     direction -1 -4.4897e-011 9.78352e-028   
     length 3.28364   
     axis 180 30 90   XYZ
    dof rx
    limits (-10.0 170.0)
  end
  begin
     id 27 
     name rwrist
     direction -1 -4.48943e-011 1.99918e-027   
     length 1.64182   
     axis 2.96054e-016 -90 -90   XYZ
    dof ry
    limits (-180.0 0.0)
  end
  begin
     id 28
     name rhand
     direction -1 -4.49024e-011 3.98478e-027   
     length 0.599745   
     axis -2.5488e-015 -90 -90   XYZ
    dof rx rz
    limits (-90.0 90.0)
           (-45.0 45.0)
  end
  begin
     id 29
     name rfingers
     direction -1 -4.48914e-011 8.00621e-027   
     length 0.48353   
     axis -5.0975e-015 -90 -90   XYZ
    dof rx
    limits (0.0 90.0)
  end
  begin
     id 30
     name rthumb
     direction -0.707107 -6.34992e-011 0.707107   
     length 0.694255   
     axis -90 -45 4.48553e-014   XYZ
    dof rx rz
    limits (-45.0 45.0)
           (-45.0 45.0)
  end
:hierarchy
  begin
    root lhipjoint rhipjoint lowerback
    lhipjoint lfemur
    lfemur ltibia
    ltibia lfoot
    lfoot ltoes
    rhipjoint rfemur
    rfemur rtibia
    rtibia rfoot
    rfoot rtoes
    lowerback upperback
    upperback thorax
    thorax lowerneck lclavicle rclavicle
    lowerneck upperneck
    upperneck head
    lclavicle lhumerus
    lhumerus lradius
    lradius lwrist
    lwrist lhand lthumb
    lhand lfingers
    rclavicle rhumerus
    rhumerus rradius
    rradius rwrist
    rwrist rhand rthumb
    rhand rfingers
  end

#!OML:ASF E:\CV Data\Top Level 1\Subject 1\Session 1\player.ASF
:FULLY-SPECIFIED
:DEGREES
619
root 7.03438 16.8854 -6.57347 6.7745 -37.3588 -3.31194
lowerback 11.8367 0.080902 -2.96522
upperback 0.769635 -0.11035 3.29428
thorax -5.82786 0.0553699 5.18423
lowerneck -17.8627 -0.211864 -7.84913
upperneck 18.0707 -0.622659 11.2764
head 8.629 0.339625 5.0971
rclavicle -5.94366e-014 2.38542e-015
rhumerus 144.965 197.359 116.625
rradius 54.9699
rwrist -25.0904
rhand -34.3391 17.5379
rfingers 7.12502
rthumb -7.50689 -12.3089
lclavicle -5.94366e-014 2.38542e-015
lhumerus -32.8387 -17.5335 94.1795
lradius 80.0702
lwrist 11.734
lhand -21.6069 13.8747
lfingers 7.12502
lthumb 4.78833 43.8006
rfemur -39.4358 -2.8416 27.4264
rtibia 39.3931
rfoot -19.8738 -6.7253
rtoes 2.81874
lfemur -1.34845 1.1795 -24.4775
ltibia 28.0838
lfoot -23.2634 5.49916
ltoes -4.19221
620
root 7.07629 16.8974 -6.64025 6.7166 -37.9604 -3.3042
lowerback 11.8816 0.163993 -2.93391
upperback 0.816361 -0.00317441 3.19481
thorax -5.81525 0.104658 5.04185
lowerneck -17.8333 -0.130996 -7.83263
upperneck 18.1093 -0.518424 11.2683
head 8.62502 0.388173 5.10459
rclavicle -1.00386e-013 1.98785e-015
rhumerus 144.879 196.93 115.964
rradius 54.9798
rwrist -25.2258
rhand -34.1537 17.3153
rfingers 7.12502
rthumb -7.32795 -12.5378
lclavicle -1.00386e-013 1.98785e-015
lhumerus -33.0518 -17.1885 94.1039
lradius 80.1322
lwrist 11.7475
lhand -21.6744 13.889
lfingers 7.12502
lthumb 4.72315 43.8164
rfemur -39.3699 -3.51295 27.711
rtibia 39.5094
rfoot -19.5778 -8.48815
rtoes 4.35193
lfemur -1.53819 1.23749 -24.6325
ltibia 28.0318
lfoot -23.1052 5.94834
ltoes -3.32829
621
root 7.11744 16.91 -6.70465 6.68557 -38.5863 -3.30442
lowerback 11.8969 0.249838 -2.88757
upperback 0.84985 0.110595 3.09892
thorax -5.80025 0.15711 4.89337
lowerneck -17.7992 -0.0434088 -7.80915
upperneck 18.1461 -0.400587 11.2318
head 8.61806 0.440611 5.10227
rclavicle 8.31914e-014 -2.06736e-014
rhumerus 144.8 196.458 115.286
rradius 54.9812
rwrist -25.4316
rhand -33.9697 17.1373
rfingers 7.12502
rthumb -7.15029 -12.7219
lclavicle 8.31914e-014 -2.06736e-014
lhumerus -33.292 -16.8175 94.0561
lradius 80.2057
lwrist 11.749
lhand -21.7041 13.9106
lfingers 7.12502
lthumb 4.69449 43.8386
rfemur -39.3224 -4.14512 27.9607
rtibia 39.7121
rfoot -19.1327 -10.1459
rtoes 6.07827
lfemur -1.74374 1.30754 -24.7785
ltibia 27.9827
lfoot -22.9278 6.40565
ltoes -2.67414
622
root 7.15777 16.9225 -6.76691 6.67977 -39.2417 -3.31756
lowerback 11.8852 0.341129 -2.82093
upperback 0.877435 0.234722 3.00082
thorax -5.77677 0.214085 4.72901
lowerneck -17.7837 0.049102 -7.76856
upperneck 18.191 -0.275383 11.1742
head 8.61656 0.496042 5.09104
rclavicle -1.89839e-014 4.37326e-015
rhumerus 144.736 195.946 114.575
rradius 54.9711
rwrist -25.6912
rhand -33.8207 17.0147
rfingers 7.12502
rthumb -7.00646 -12.8493
lclavicle -1.89839e-014 4.37326e-015
lhumerus -33.5417 -16.4492 94.0196
lradius 80.2739
lwrist 11.7592
lhand -21.7419 13.9177
lfingers 7.12502
lthumb 4.65795 43.8465
rfemur -39.2853 -4.71944 28.1733
rtibia 40.0026
rfoot -18.6237 -11.6714
rtoes 7.92444
lfemur -1.97115 1.41092 -24.905
ltibia 27.9547
lfoot -22.7524 6.83123
ltoes -2.1363
623
root 7.19721 16.9341 -6.82747 6.69384 -39.9231 -3.34612
lowerback 11.8727 0.44299 -2.75405
upperback 0.890109 0.373884 2.91526
thorax -5.7695 0.279302 4.57577
lowerneck -17.7758 0.142386 -7.72355
upperneck 18.2557 -0.144435 11.0857
head 8.62258 0.551537 5.06975
rclavicle 6.58971e-014 -9.54166e-015
rhumerus 144.675 195.365 113.854
rradius 54.9531
rwrist -26.0026
rhand -33.7368 16.9551
rfingers 7.12502
rthumb -6.92548 -12.9116
lclavicle 6.58971e-014 -9.54166e-015
lhumerus -33.7927 -16.088 94.0167
lradius 80.3063
lwrist 11.7994
lhand -21.8096 13.9066
lfingers 7.12502
lthumb 4.59267 43.8369
rfemur -39.2455 -5.20046 28.3342
rtibia 40.3788
rfoot -18.1415 -13.0573
rtoes 9.72538
lfemur -2.21968 1.5534 -25.0065
ltibia 27.9611
lfoot -22.586 7.22352
ltoes -1.77583
624
root 7.23534 16.9446 -6.88693 6.73199 -40.6368 -3.39414
lowerback 11.85 0.556032 -2.69141
upperback 0.892115 0.528388 2.84241
thorax -5.76879 0.352687 4.43612
lowerneck -17.7748 0.237764 -7.68026
upperneck 18.3426 -0.00599049 10.9738
head 8.63679 0.608162 5.04231
rclavicle -3.45885e-014 -2.46493e-014
rhumerus 144.619 194.704 113.116
rradius 54.9389
rwrist -26.3592
rhand -33.7237 16.9363
rfingers 7.12502
rthumb -6.91289 -12.9309
lclavicle -3.45885e-014 -2.46493e-014
lhumerus -34.0479 -15.7222 94.0443
lradius 80.3148
lwrist 11.8648
lhand -21.9189 13.8808
lfingers 7.12502
lthumb 4.48709 43.8133
rfemur -39.201 -5.55959 28.4367
rtibia 40.8356
rfoot -17.7427 -14.2783
rtoes 11.2821
lfemur -2.49722 1.76189 -25.0735
ltibia 28.0103
lfoot -22.4406 7.55819
ltoes -1.54129
625
root 7.27249 16.9542 -6.94509 6.7709 -41.3291 -3.45311
lowerback 11.8412 0.662167 -2.61566
upperback 0.887376 0.675646 2.77586
thorax -5.78136 0.422613 4.29716
lowerneck -17.7736 0.33471 -7.63494
upperneck 18.4327 0.137145 10.8477
head 8.65184 0.665607 5.01025
rclavicle -8.41853e-014 -8.74653e-015
rhumerus 144.562 193.971 112.356
rradius 54.94
rwrist -26.7541
rhand -33.7651 16.9403
rfingers 7.12502
rthumb -6.95282 -12.9255
lclavicle -8.41853e-014 -8.74653e-015
lhumerus -34.31 -15.3536 94.1003
lradius 80.3077
lwrist 11.9474
lhand -22.0366 13.8518
lfingers 7.12502
lthumb 4.37342 43.7866
rfemur -39.1321 -5.83103 28.4633
rtibia 41.3691
rfoot -17.4497 -15.3013
rtoes 12.5061
lfemur -2.78411 1.97456 -25.1107
ltibia 28.1021
lfoot -22.3141 7.83346
ltoes -1.38058
626
root 7.30843 16.9627 -7.00244 6.80697 -41.993 -3.52305
lowerback 11.8558 0.76327 -2.53826
upperback 0.87432 0.816922 2.72246
thorax -5.81475 0.4902 4.17243
lowerneck -17.7713 0.428982 -7.59385
upperneck 18.5268 0.280466 10.7089
head 8.66832 0.721399 4.97456
rclavicle 1.0302e-013 -1.66979e-014
rhumerus 144.492 193.167 111.59
rradius 54.9741
rwrist -27.1834
rhand -33.8353 16.9506
rfingers 7.12502
rthumb -7.02061 -12.913
lclavicle 1.0302e-013 -1.66979e-014
lhumerus -34.5919 -14.9495 94.1923
lradius 80.3114
lwrist 12.0266
lhand -22.1427 13.8408
lfingers 7.12502
lthumb 4.27101 43.7777
rfemur -39.0302 -5.99313 28.4014
rtibia 41.9729
rfoot -17.2684 -16.0915
rtoes 13.448
lfemur -3.07437 2.18621 -25.1178
ltibia 28.2351
lfoot -22.2073 8.05958
ltoes -1.29815
